<?xml version="1.0" standalone="no"?>
<svg xmlns:xlink="http://www.w3.org/1999/xlink" id="wave" style="transform:rotate(0deg); transition: 0.3s" viewBox="0 0 1440 310" version="1.1" xmlns="http://www.w3.org/2000/svg"><defs><linearGradient id="sw-gradient-0" x1="0" x2="0" y1="1" y2="0"><stop stop-color="rgba(243, 106, 62, 1)" offset="0%"/><stop stop-color="rgba(255, 179, 11, 1)" offset="100%"/></linearGradient></defs><path style="transform:translate(0, 0px); opacity:1" fill="url(#sw-gradient-0)" d="M0,186L30,165.3C60,145,120,103,180,108.5C240,114,300,165,360,196.3C420,227,480,238,540,242.8C600,248,660,248,720,227.3C780,207,840,165,900,170.5C960,176,1020,227,1080,237.7C1140,248,1200,217,1260,186C1320,155,1380,124,1440,108.5C1500,93,1560,93,1620,103.3C1680,114,1740,134,1800,124C1860,114,1920,72,1980,82.7C2040,93,2100,155,2160,186C2220,217,2280,217,2340,222.2C2400,227,2460,238,2520,242.8C2580,248,2640,248,2700,222.2C2760,196,2820,145,2880,149.8C2940,155,3000,217,3060,248C3120,279,3180,279,3240,273.8C3300,269,3360,258,3420,232.5C3480,207,3540,165,3600,149.8C3660,134,3720,145,3780,144.7C3840,145,3900,134,3960,108.5C4020,83,4080,41,4140,62C4200,83,4260,165,4290,206.7L4320,248L4320,310L4290,310C4260,310,4200,310,4140,310C4080,310,4020,310,3960,310C3900,310,3840,310,3780,310C3720,310,3660,310,3600,310C3540,310,3480,310,3420,310C3360,310,3300,310,3240,310C3180,310,3120,310,3060,310C3000,310,2940,310,2880,310C2820,310,2760,310,2700,310C2640,310,2580,310,2520,310C2460,310,2400,310,2340,310C2280,310,2220,310,2160,310C2100,310,2040,310,1980,310C1920,310,1860,310,1800,310C1740,310,1680,310,1620,310C1560,310,1500,310,1440,310C1380,310,1320,310,1260,310C1200,310,1140,310,1080,310C1020,310,960,310,900,310C840,310,780,310,720,310C660,310,600,310,540,310C480,310,420,310,360,310C300,310,240,310,180,310C120,310,60,310,30,310L0,310Z"/></svg>